<?xml version="1.0" encoding="UTF-8"?>
<svg width="36px" height="36px" viewBox="0 0 36 36" version="1.1" xmlns="http://www.w3.org/2000/svg" xmlns:xlink="http://www.w3.org/1999/xlink">
    <!-- Generator: Sketch 52.5 (67469) - http://www.bohemiancoding.com/sketch -->
    <title>hr_logo_tag_only</title>
    <desc>Created with Sketch.</desc>
    <g id="hr_logo_tag_only" stroke="none" stroke-width="1" fill="none" fill-rule="evenodd">
        <g id="Group" fill="#FFFFFF">
            <path d="M6.005,35.578 L6.006,35.578 C-3.55271368e-15,35.578 -3.55271368e-15,29.587 -3.55271368e-15,29.588 L-3.55271368e-15,5.993 C-3.55271368e-15,0.001 6.002,-1.42108547e-14 6.002,-1.42108547e-14 L29.626,-1.42108547e-14 C35.63,-1.42108547e-14 35.63,5.993 35.63,5.993 L35.63,35.578 L6.005,35.578 Z M25.01,17.837 C26.14,16.547 26.946,15.135 27.285,13.812 C27.477,13.077 27.522,12.362 27.397,11.712 C26.847,8.839 23.167,8.292 19.168,10.468 L18.618,7.635 L14.386,9.966 L15.071,13.52 C15.513,13.244 15.948,13.072 16.347,13.03 C17.692,12.887 18.071,14.355 17.199,16.301 C16.8802151,16.9917786 16.4694947,17.6362833 15.978,18.217 L16.78,22.382 L16.783,22.388 L16.794,22.462 C17.407,25.28 21.089,25.8 25.084,23.598 C29.034,21.418 31.81,17.394 31.4,14.515 C31.24,15.673 30.1,17.088 28.576,17.925 C26.953,18.819 25.456,18.758 25.013,17.849 L25.011,17.837 L25.01,17.837 Z M13.168,20.086 C11.822,20.218 11.44,18.748 12.315,16.8 C12.6752463,16.0245663 13.1517324,15.3086569 13.728,14.677 L12.966,10.751 L4.639,15.344 L7.046,27.834 L15.373,23.248 L14.643,19.448 C14.137,19.802 13.626,20.036 13.168,20.086 Z" id="Combined-Shape"></path>
        </g>
    </g>
</svg>